<?xml version="1.0" encoding="UTF-8"?>
<svg id="Layer_1" data-name="Layer 1" xmlns="http://www.w3.org/2000/svg" viewBox="0 0 216 216">
  <defs>
    <style>
      .cls-1 {
        fill: #fff;
      }
    </style>
  </defs>
  <g>
    <path class="cls-1" d="M96.78,70.18c-.26-1.33-.45-2.44-.86-2.81-.39-.36-1.48-.36-3.39-.36-.04,2.4-.09,10.59-.09,11.94,0,1.24.34,1.22,2.25,1.39l-.02.43c-.79,0-1.93-.06-3.04-.06s-2.27.06-3.07.06l-.02-.43c1.93-.17,2.25-.17,2.25-1.39,0-1.33-.02-9.52-.06-11.94-2.23,0-3.09,0-3.45.34-.39.34-.58,1.5-.84,2.83l-.45-.02c.02-.75.02-1.39.02-1.99,0-.71-.02-1.31-.04-1.82l.09-.06c.71,0,2.96.06,5.57.06s4.87-.06,5.57-.06l.06.06c-.02.47-.04,1.48-.04,2.64v1.18l-.45.02Z"/>
    <path class="cls-1" d="M117.81,66.71c-1.71.21-1.89.32-1.91,1.52-.02,1.48-.06,9.41-.06,10.66,0,1.18.17,1.24,1.93,1.46l-.02.43c-.62,0-1.61-.06-2.74-.06s-2.21.06-2.72.06l-.02-.43c1.76-.19,1.93-.3,1.93-1.44,0-1.74.02-3.49,0-5.53-.99.06-1.59.19-2.4.19-1.31,0-2.55-.04-3.67-.04-.6,0-1.16.02-1.67.04,0,1.59-.04,3.88-.04,5.36,0,1.09.24,1.2,1.97,1.42l-.02.43c-.58,0-1.67-.06-2.77-.06s-2.06.06-2.66.06l-.02-.43c1.69-.21,1.89-.32,1.89-1.44,0-1.33-.04-9.22-.06-10.66-.02-1.22-.15-1.33-1.91-1.54l-.02-.43c.58,0,1.8.06,2.81.06s2.19-.06,2.85-.06l-.02.43c-1.76.21-1.93.32-1.95,1.54l-.04,4.67c.84-.06,1.33-.21,2.21-.21,1.35,0,2.55.04,3.73.04.6,0,1.2,0,1.8-.04l-.04-4.48c0-1.2-.19-1.31-1.95-1.52l-.02-.43c.67,0,1.8.06,2.85.06.99,0,2.14-.06,2.81-.06l-.02.43Z"/>
    <path class="cls-1" d="M132.7,70.22c-.26-1.44-.47-2.36-.79-2.7-.41-.39-1.56-.56-2.74-.56-.96,0-1.39.11-1.61.28-.19.15-.28.37-.28,1.05v4.59c.58,0,1.01-.04,1.33-.04,1.8,0,2.64-.09,3.19-.24l.06.09c-.02.21-.08.84-.11,1.33h-.24c-.49-.39-.94-.54-1.99-.54h-2.25c-.02,1.09-.02,3.22-.02,4.84,0,.86.11,1.12.41,1.33.39.28,1.18.47,2.59.47,2.23,0,2.59-.41,3.02-3.58l.47.04c-.04,1.05-.04,2.08-.04,4.12-.9.02-2.04.06-3.07.06-1.71,0-3.11-.06-4.22-.06-.99,0-1.82.06-2.44.06l-.02-.43c1.42-.17,1.67-.26,1.67-1.67,0-2.62-.06-8.47-.09-10.25-.02-1.48-.28-1.52-1.91-1.71l-.02-.43c.75,0,1.97.06,3,.06,1.16,0,2.44-.06,4.03-.06.81,0,2.06.04,2.68.06l.06.06c-.04.6-.19,2.1-.3,3.82h-.39Z"/>
  </g>
  <g>
    <path class="cls-1" d="M66.89,136.58c-.19-.92-.36-1.97-.69-2.4-.34-.45-1.42-.9-2.66-.9-1.74,0-2.42.9-2.42,2.23,0,4.01,6.9,2.49,6.9,7.72,0,1.67-.69,2.66-1.91,3.45-.84.56-1.67.86-2.85.86-1.24,0-2.31-.34-3.26-.75.04-1.2.06-2.49.09-3.77l.41-.02c.19,1.22.43,2.21.75,2.62.36.47,1.52.99,2.87.99,1.8,0,2.68-.94,2.68-2.51,0-4.09-6.9-2.87-6.9-7.68,0-1.74.77-2.66,1.95-3.32.79-.45,1.59-.71,2.62-.71s2.04.26,2.98.62c-.04.88-.15,2.36-.17,3.58h-.39Z"/>
    <path class="cls-1" d="M85.27,143.14c-.02,1.69-.04,2.79-.04,3.54-1.61.56-3.26.86-4.65.86-4.35,0-6.5-2.94-6.5-7.55,0-3.45,1.01-5.02,2.72-6.17,1.33-.88,2.62-1.39,4.46-1.39,1.5,0,3.09.28,4.03.51-.04.75-.15,2.1-.17,3.73h-.45c-.24-1.37-.36-2.08-.77-2.47-.49-.47-1.95-.79-3.67-.79-1.46,0-2.47.26-3.22,1.12-.84.94-1.18,2.53-1.18,4.74,0,4.61,1.71,7.65,5.17,7.65,1.16,0,2.36-.34,2.89-.96.39-.47.6-1.14.96-2.83l.41.02Z"/>
    <path class="cls-1" d="M106.44,133.13c-1.71.21-1.89.32-1.91,1.52-.02,1.48-.06,9.41-.06,10.66,0,1.18.17,1.24,1.93,1.46l-.02.43c-.62,0-1.61-.06-2.74-.06s-2.21.06-2.72.06l-.02-.43c1.76-.19,1.93-.3,1.93-1.44,0-1.74.02-3.49,0-5.53-.99.06-1.59.19-2.4.19-1.31,0-2.55-.04-3.67-.04-.6,0-1.16.02-1.67.04,0,1.59-.04,3.88-.04,5.36,0,1.09.24,1.2,1.97,1.42l-.02.43c-.58,0-1.67-.06-2.77-.06s-2.06.06-2.66.06l-.02-.43c1.69-.21,1.89-.32,1.89-1.44,0-1.33-.04-9.22-.06-10.66-.02-1.22-.15-1.33-1.91-1.54l-.02-.43c.58,0,1.8.06,2.81.06s2.19-.06,2.85-.06l-.02.43c-1.76.21-1.93.32-1.95,1.54l-.04,4.67c.84-.06,1.33-.21,2.21-.21,1.35,0,2.55.04,3.73.04.6,0,1.2,0,1.8-.04l-.04-4.48c0-1.2-.19-1.31-1.95-1.52l-.02-.43c.66,0,1.8.06,2.85.06.99,0,2.14-.06,2.81-.06l-.02.43Z"/>
    <path class="cls-1" d="M122.78,146.08c-1.26,1.03-2.55,1.48-4.14,1.48-4.18,0-6.28-3.02-6.28-7.59,0-3.02.92-4.65,2.51-5.94,1.29-1.03,2.64-1.65,4.63-1.65,3.6,0,6.04,2.04,6.04,6.99,0,3.49-1.2,5.42-2.77,6.71ZM118.51,133.34c-1.22,0-2.34.24-3.19,1.33-.75.94-1.24,2.42-1.24,4.82,0,4.84,1.99,7.07,5.45,7.07,1.31,0,2.19-.3,2.94-1.29.86-1.14,1.39-3.02,1.39-5.38,0-4.57-1.93-6.56-5.34-6.56Z"/>
    <path class="cls-1" d="M141.97,146.08c-1.26,1.03-2.55,1.48-4.14,1.48-4.18,0-6.28-3.02-6.28-7.59,0-3.02.92-4.65,2.51-5.94,1.29-1.03,2.64-1.65,4.63-1.65,3.6,0,6.04,2.04,6.04,6.99,0,3.49-1.2,5.42-2.77,6.71ZM137.71,133.34c-1.22,0-2.34.24-3.19,1.33-.75.94-1.24,2.42-1.24,4.82,0,4.84,1.99,7.07,5.45,7.07,1.31,0,2.19-.3,2.94-1.29.86-1.14,1.39-3.02,1.39-5.38,0-4.57-1.93-6.56-5.34-6.56Z"/>
    <path class="cls-1" d="M160.72,142.97c-.06,1.24-.11,2.25-.11,4.18-.62.02-1.59.04-2.36.04-1.89,0-3.37-.06-4.46-.06-1.03,0-2.23.06-2.83.06l-.02-.43c1.5-.19,1.69-.3,1.69-1.63,0-2.25-.02-8.38-.06-10.48-.02-1.24-.34-1.35-1.91-1.52l-.02-.43c.79,0,1.72.06,2.77.06.99,0,2.02-.06,3.07-.06v.43c-1.82.17-2.1.28-2.12,1.61-.04,1.48-.06,8.47-.06,10.27,0,1.18.49,1.54,2.87,1.54.9,0,1.74-.06,2.12-.51.34-.39.71-1.18.94-3.11l.49.04Z"/>
  </g>
  <g>
    <path class="cls-1" d="M32.47,121.44c-1.31,0-3.38-.13-5.42-.13-2.33,0-4.7.13-6.05.13v-1.14c2.71-.21,3.47-.59,3.47-1.57s-.47-2.33-2.41-7.62h-10.24c-1.57,4.57-2.29,6.47-2.29,7.36,0,1.14.72,1.4,3.68,1.73l-.08,1.23c-1.35,0-3.17-.13-5.12-.13-1.69,0-3.26.13-4.15.13l-.04-1.1c3-.68,3.13-1.31,4.95-6.47,3.34-9.6,6.14-17.47,6.14-18.28,0-.55-.51-.89-3.47-1.44v-1.18c.89.04,1.73.04,2.45.04,3.17,0,4.87-.21,6.01-.3l.25.25c1.4,4.44,4.95,13.79,8.08,22.34,1.57,4.23,1.78,4.57,4.32,5.04l-.08,1.1ZM21.51,109.55l-4.78-12.91-4.36,12.91h9.14Z"/>
    <path class="cls-1" d="M64.42,121.44c-8.63-12.4-13.84-19.46-16.59-23.23.04,4.91.13,11.72.21,17.52.08,3.81.42,3.93,3.89,4.4l-.04,1.31c-1.1,0-3.47-.13-5.08-.13-1.73,0-3.68.13-4.74.13l-.04-1.14c3.22-.46,3.51-.89,3.55-4.91.04-6.35.04-12.74.08-19.12-.93-1.31-2.2-1.99-3.94-2.24l-.04-1.18c1.95,0,4.95.13,8.38.13,2.71,4.36,7.7,11.3,15.11,22.13-.08-3.47-.25-12.14-.34-16.29-.08-3.72-.38-4.27-3.81-4.61l-.04-1.35c.93,0,3.17.13,5.04.13s3.98-.13,4.95-.13l-.04,1.18c-3,.51-3.55.93-3.6,4.87,0,9.9-.04,14.94-.04,18.24,0,1.78,0,3.05.04,4.32h-2.92Z"/>
    <path class="cls-1" d="M95.86,100.71c-.38-1.73-.85-3.64-1.48-4.4-.68-.89-2.67-1.73-5.16-1.73-3.05,0-4.19,1.4-4.19,3.68,0,7.49,13.54,4.7,13.54,15.02,0,3.64-1.44,5.5-4.15,7.15-1.9,1.18-3.51,1.74-5.88,1.74s-4.65-.63-6.43-1.35c.08-2.24.17-4.91.21-7.7h1.1c.42,2.16,1.02,3.98,1.65,4.74.76.89,2.92,1.86,5.59,1.86,3.22,0,4.65-1.52,4.65-4.19,0-7.49-13.54-5.33-13.54-15.06,0-3.6,1.61-5.33,4.23-6.81,1.73-.97,3.26-1.44,5.37-1.44,1.95,0,4.1.47,5.97,1.14-.13,1.86-.34,4.95-.42,7.36h-1.06Z"/>
    <path class="cls-1" d="M128.61,100.92c-.55-2.62-1.1-4.36-1.74-5.04-.8-.8-2.71-1.18-4.82-1.18-1.61,0-2.37.17-2.79.51-.34.3-.51.8-.51,2.07v8.5c1.06-.04,1.95-.13,2.54-.13,3.09,0,4.74-.21,5.92-.47l.13.13c-.08.63-.17,2.03-.25,3.22l-.72.04c-.97-.85-1.86-1.14-3.81-1.14h-3.81c-.04,2.12-.04,5.84-.04,8.72,0,1.57.17,2.07.72,2.5.72.63,2.24,1.06,4.48,1.06,3.94,0,4.7-.89,5.84-6.69l1.23.04c-.08,3-.13,6.18-.13,8.25-1.69.04-4.19.13-6.05.13-3.38,0-6.13-.13-8.33-.13s-3.81.13-5.16.13l-.04-1.1c2.58-.46,3.09-.72,3.09-3.21,0-4.27-.17-16.54-.25-19.76-.04-2.71-.55-2.88-3.6-3.38l-.04-1.14c1.52,0,3.94.13,6.18.13s4.99-.13,8.04-.13c1.57,0,4.23.08,5.59.13l.13.13c-.13,1.27-.42,4.36-.72,7.83h-1.06Z"/>
    <path class="cls-1" d="M163.26,112.98c-.08,2.45-.17,4.65-.17,8.38-1.35.04-3.38.08-4.99.08-3.85,0-6.69-.13-8.93-.13-2.12,0-4.44.13-5.67.13l-.04-1.1c2.71-.51,3.13-.76,3.13-3.3,0-4.02-.08-16.5-.17-20.18-.04-2.16-.68-2.41-3.6-2.88l-.04-1.14c1.52,0,3.68.13,5.84.13s4.44-.13,6.47-.13l-.04,1.14c-3.3.42-3.89.72-3.94,3.09-.08,2.96-.13,16.33-.13,19.59,0,2.24,1.1,3.09,5.2,3.09,1.69,0,3.09-.21,3.85-1.14.68-.85,1.35-2.33,1.95-5.75l1.27.13Z"/>
    <path class="cls-1" d="M210.61,93.98c-3.51.55-3.85.85-3.85,3.51,0,1.95.38,14.09.59,19.51.13,2.54.51,2.88,3.43,3.34v1.1c-1.35,0-3.39-.13-5.46-.13s-4.32.13-5.63.13l-.08-1.14c2.75-.34,3.43-.72,3.43-2.92,0-2.67-.76-14.6-.76-20.44-8,20.14-8.8,22.34-9.48,24.37l-2.16-.04c-.85-2.41-1.74-4.65-10.07-24.29-.04,3.43-.25,14.34-.25,18.83v.72c0,2.96.68,3.17,3.72,3.6l-.04,1.31c-1.14,0-3.38-.13-4.95-.13-1.48,0-3.51.13-4.53.13l-.04-1.31c2.79-.47,3.47-.55,3.55-3.89.13-3.81.38-15.87.38-18.19,0-3.55-.34-3.43-3.81-4.06l-.04-1.14c1.1,0,4.15.13,5.71.13,1.23,0,2.83-.08,3.81-.08,1.1,3.77,6.26,15.66,8.93,22.76,4.7-13.16,7.74-19.72,8.55-22.76.93,0,2.41.08,3.51.08,1.48,0,4.27-.13,5.59-.13l-.04,1.14Z"/>
  </g>
  <g>
    <path class="cls-1" d="M146.81,73.79c0-.13.2-.33.39-.53.26-.26.46-.53.59-.53.33,0,.53.4.66.59.13.2.33.46.2.59s-.66.72-.86.72-.99-.53-.99-.86ZM150.17,73.39c.26-.07.59-.26.72-.46s.79-.53.86-.59c.06-.07.79-.07,1.32-.07s2.63.2,3.23.33c.59.13,1.25.07,1.58.07h1.05s1.58.2,2.3.13,1.65-.07,2.11,0c.46.07,2.7,0,3.36,0s2.9.26,3.42.26,1.38.13,1.78.07c.4-.07,1.58,0,1.98,0s1.32.13,1.91.13,2.44.13,2.83.13,1.18.13,1.58.13h1.98c.72,0,1.19,0,1.65.07.53.07,1.51.07,1.91.13.39.07.99,0,1.32.07.33.07-.2.4-.86.4s-3.82.13-4.61.13-1.65-.07-2.77,0c-1.12.07-2.04,0-3.29.13-1.25.13-.92-.07-1.25,0-.33.06-1.91.2-2.11.13s-1.58.07-2.24.13c-.66.07-2.83.26-4.15.2-1.32-.07-2.7.07-2.9.13-.2.07-.72,0-1.12.07-.4.07-1.45-.07-2.11.07-.66.13-2.24.07-2.7.13-.46.06-2.9.06-3.42.06s-1.12.2-1.51.07c-.4-.13-.99-.26-1.25-.59-.26-.33-.53-.39-.72-.53-.2-.13-.53-.26-.53-.46s.4-.4.66-.46ZM151.09,73.98c.07.13.92.59,1.12.72.2.13.59,0,.86,0s1.05,0,1.32-.07,1.18-.07,1.51-.2c.33-.13,1.38-.13,1.98-.26.59-.13,1.45-.26,1.18-.33s-1.32-.07-1.65-.07-1.25-.13-1.91-.2c-.66-.07-1.05-.07-1.38-.2-.33-.13-1.19-.13-1.45-.13s-.66.33-.99.4c-.33.07-.66.2-.59.33Z"/>
    <path class="cls-1" d="M77.65,73.96c0,.13-.2.33-.39.53-.26.26-.46.53-.59.53-.33,0-.53-.4-.66-.59-.13-.2-.33-.46-.2-.59s.66-.72.86-.72.99.53.99.86ZM74.29,74.36c-.26.07-.59.26-.72.46s-.79.53-.86.59c-.06.07-.79.07-1.32.07s-2.63-.2-3.23-.33c-.59-.13-1.25-.07-1.58-.07h-1.05s-1.58-.2-2.3-.13-1.65.07-2.11,0c-.46-.07-2.7,0-3.36,0s-2.9-.26-3.42-.26-1.38-.13-1.78-.07c-.4.07-1.58,0-1.98,0s-1.32-.13-1.91-.13-2.44-.13-2.83-.13-1.18-.13-1.58-.13h-1.98c-.72,0-1.19,0-1.65-.07-.53-.07-1.51-.07-1.91-.13-.39-.07-.99,0-1.32-.07-.33-.07.2-.4.86-.4s3.82-.13,4.61-.13,1.65.07,2.77,0c1.12-.07,2.04,0,3.29-.13,1.25-.13.92.07,1.25,0,.33-.06,1.91-.2,2.11-.13s1.58-.07,2.24-.13c.66-.07,2.83-.26,4.15-.2,1.32.07,2.7-.07,2.9-.13.2-.07.72,0,1.12-.07.4-.07,1.45.07,2.11-.07.66-.13,2.24-.07,2.7-.13.46-.06,2.9-.06,3.42-.06s1.12-.2,1.51-.07c.4.13.99.26,1.25.59.26.33.53.39.72.53.2.13.53.26.53.46s-.4.4-.66.46ZM73.37,73.77c-.07-.13-.92-.59-1.12-.72-.2-.13-.59,0-.86,0s-1.05,0-1.32.07-1.18.07-1.51.2c-.33.13-1.38.13-1.98.26-.59.13-1.45.26-1.18.33s1.32.07,1.65.07,1.25.13,1.91.2c.66.07,1.05.07,1.38.2.33.13,1.19.13,1.45.13s.66-.33.99-.4c.33-.07.66-.2.59-.33Z"/>
  </g>
</svg>