<?xml version="1.0" encoding="UTF-8"?>
<svg id="Layer_1" data-name="Layer 1" xmlns="http://www.w3.org/2000/svg" viewBox="0 0 216 216">
  <defs>
    <style>
      .cls-1 {
        fill: #fff;
      }
    </style>
  </defs>
  <path class="cls-1" d="M117.75,39.24c.02-1.86.04-3.62,0-4.8v-10.39c.3-3.5-1.49-7.06-4.66-9.28l-.31.39c2.72,2.53,4.11,5.68,3.92,8.87v19.2c0,.9,0,1.37.03,1.62h-.03c-.19,3.78.53,7.34,2.08,10.3l.46-.2c-.6-1.66-1-3.33-1.19-4.99-.39-2.28-.34-6.96-.3-10.72Z"/>
  <g>
    <path class="cls-1" d="M110.59,104.34c.72-1.06,1.49-1.88,2.36-2.52,1.01-.74,1.93-1.31,3.13-.92.14.04.25-.02.35-.06.03-.02.07-.04.11-.05l.39-.16-.33-.26s-.07-.06-.1-.09c-.07-.07-.15-.14-.26-.16l-.11-.03c-.24-.06-.49-.12-.75-.12-.66-.02-1.31.18-2.05.62-1.13.66-2.14,1.59-3.08,2.83-.18.24-.34.47-.47.69-.07.12-.05.24-.04.33,0,.02,0,.04,0,.06v.35s.39-.13.39-.13c.07-.02.17-.05.25-.11.09-.06.13-.15.2-.26Z"/>
    <path class="cls-1" d="M108.4,132.16c0-.07.01-.17-.03-.27-.04-.1-.12-.16-.21-.24l-.22-.15-.17.2c-.05.05-.12.12-.15.22-.03.1-.03.19-.02.33v11.75c0,.07-.02.17.02.27.04.1.11.17.2.26l.2.23.23-.29c.04-.05.1-.12.14-.2.04-.09.03-.19.03-.28v-11.84Z"/>
    <path class="cls-1" d="M134.88,81.86c-.02-.09-.06-.19-.13-.29-.1-.13-.21-.25-.32-.38-.18-.21-.36-.41-.5-.63-.07-.11-.1-.26-.13-.43-.02-.1-.04-.19-.06-.29-.02-.08-.05-.15-.08-.22l-.18-.5-.33.41c-.06.07-.12.14-.17.23-.03.05-.04.1-.05.15l-.13.06.1.23c.04.08.07.17.1.25.08.21.16.43.29.62.26.38.58.71.88,1.04.11.11.26.13.37.15.03,0,.06,0,.09.01l.46.11-.17-.44s-.02-.05-.03-.08Z"/>
    <path class="cls-1" d="M127.26,100.02c.07.07.16.16.3.18.35.05.7.09,1.01.13l.31.04.44-.03c.26-.02.49-.04.73-.06,1.04-.12,2.01-.38,2.9-.77,3.44-1.52,5.31-3.87,5.74-7.21.02-.14-.05-.25-.1-.33-.01-.02-.02-.04-.03-.05l-.18-.26-.24.2c-.07.05-.18.12-.22.26-.03.12-.04.24-.06.36,0,.07-.02.15-.03.22-.27,1.48-.91,2.76-1.9,3.79-1.87,1.95-4.22,2.97-6.98,3.03-.24,0-.48-.02-.73-.05-.18-.02-.35-.04-.53-.05-.14,0-.25.05-.33.1-.02.01-.05.03-.07.04l-.39.17.34.26s.04.03.05.05Z"/>
    <path class="cls-1" d="M110.47,73.94c.42.74.67,1.61.77,2.72.06.63.08,1.28.09,1.91,0,.28.02.56.03.85,0,.05-.01.14.04.23.04.07.16.26.34.26.02,0,.04,0,.06,0,.15-.04.27-.15.33-.25.07-.11.06-.22.05-.33-.02-.33-.03-.67-.04-1.01-.03-.76-.05-1.54-.16-2.3-.21-1.45-.74-3.45-2.87-4.35.02-.16.04-.31.04-.46,0-.16-.12-.28-.16-.31l-.14-.1h-.11c-.17.03-.3.17-.36.29-.04.08-.04.16-.03.24l-.02.04c-.03.05-.09.15-.09.17-.15.03-.32.03-.5.02-.07,0-.14,0-.21,0h-.61c-.46-.03-.93-.04-1.39-.04h0c-.16,0-.26.12-.33.2-.01.02-.03.03-.04.05l-.2.26.28.17c.06.05.16.12.29.13l.6.02c.65.02,1.33.05,2,.03.41-.02.77.1,1.22.37.45.28.82.68,1.14,1.24Z"/>
    <path class="cls-1" d="M108.49,68.05c.07.07.16.17.3.19.62.09,1.32.24,1.92.69.14.1.26.21.39.33.12.11.24.21.36.31.09.07.19.08.3.08.03,0,.07,0,.1,0l.31-.03-.06-.31c0-.08-.01-.21-.1-.31-.86-.94-1.93-1.45-3.26-1.54h-.1s-.44.37-.44.37l.23.19s.03.03.05.05Z"/>
    <path class="cls-1" d="M114.76,120.44c.22.15.44.3.67.44l.27.17c1.29.84,2.21,1.78,2.83,2.91.03.06.08.16.18.22.07.04.16.07.24.07.06,0,.12-.01.17-.03.11-.05.16-.15.19-.2l-.2-.16h0s.21.13.21.13l.08-.12-.21-.39c-.87-1.6-2.22-2.64-3.98-3.7-.13-.08-.27-.04-.42,0l-.3.09.12.3c.02.08.06.2.17.28Z"/>
    <path class="cls-1" d="M101.93,125.35h-.11c-.09,0-.17.01-.25.02-.05,0-.1.02-.18.04-1.48.33-2.33,1.41-2.96,2.41-.02.03-.08.12-.05.27.01.09.03.23.15.31.06.04.13.06.2.06.1,0,.21-.03.28-.09.08-.06.13-.15.2-.26.44-.67.93-1.14,1.5-1.43,1.26-.64,2.54-.36,3.27.73.03.05.08.14.19.18.07.02.14.04.28.05h.28s.02-.27.02-.27c.02-.08.04-.21-.04-.33-.74-1.11-1.65-1.66-2.78-1.69Z"/>
    <path class="cls-1" d="M118.93,97.28s.1.02.16.02c.06,0,.13-.01.2-.05.4-.22.76-.3,1.13-.26l.7.08c.38.04.76.08,1.13.12.13,0,.24-.04.32-.08.02-.01.04-.02.07-.03l.37-.14-.29-.27s-.03-.04-.05-.05c-.07-.08-.15-.18-.3-.21-.44-.08-.87-.14-1.31-.2l-.45-.07h-.03c-.78.06-1.26.14-1.7.44-.11.08-.16.19-.2.28,0,.02-.02.05-.03.07l-.19.35.39.02s.05,0,.07,0Z"/>
    <path class="cls-1" d="M102.46,115.48c.43.76.68,1.5.74,2.25,0,.02,0,.05,0,.07-.01.11-.03.29.09.42.08.09.19.13.33.13h0c.21,0,.29-.21.36-.39.02-.05.03-.09.05-.13l.03-.06v-.07c-.13-1.54-.55-2.74-1.32-3.79-.32-.44-.62-.91-.91-1.37l-.25-.4c-.04-.06-.07-.14-.1-.21-.04-.1-.09-.2-.15-.29-.08-.12-.2-.16-.3-.19-.02,0-.04-.01-.06-.02l-.26-.11-.1.35c-.02.08-.05.16-.06.24-.01.12.04.21.09.29l.51.92c.43.78.86,1.57,1.3,2.34Z"/>
    <path class="cls-1" d="M108.7,91.64c.1-.02.16-.09.2-.13,1.71-1.47,3-3.2,3.86-5.14.51-1.15.78-2.23.85-3.3v-.08c0-.07,0-.14-.01-.23-.02-.09-.07-.15-.13-.23l-.19-.2-.21.16c-.06.04-.15.09-.2.2-.05.09-.05.19-.06.32-.02.15-.05.29-.07.44-.05.33-.09.65-.17.96-.54,2.12-1.66,4.01-3.44,5.79-.14.14-.28.27-.43.4-.15.13-.29.26-.43.4-.1.1-.11.24-.11.4l-.04.31.38-.03c.07,0,.14-.01.21-.03Z"/>
    <path class="cls-1" d="M81.83,82.11c.3-.31.6-.63.86-.99.14-.2.23-.43.32-.65.04-.09.07-.18.11-.27l.1-.23-.14-.06s-.02-.1-.05-.15c-.05-.08-.11-.15-.17-.22l-.34-.4-.17.5c-.03.08-.06.15-.07.23-.02.08-.03.17-.05.26-.02.13-.04.26-.08.33-.17.25-.36.48-.57.73-.11.14-.23.27-.34.41-.07.09-.1.18-.13.26l-.19.47.42-.05c.13-.02.31.03.5-.16Z"/>
    <path class="cls-1" d="M78.16,92.51c-.02-.13-.03-.25-.06-.37-.03-.13-.12-.21-.23-.3l-.25-.17-.17.25c-.04.05-.09.12-.13.21-.04.1-.02.2,0,.3.17,1.32.57,2.43,1.22,3.4,1.91,2.82,4.69,4.31,8.52,4.56h.02s.36-.04.36-.04c.3-.03.59-.07.89-.12.15-.03.26-.11.35-.18.03-.02.06-.05.09-.06l.5-.32-.68-.16c-.1-.02-.21-.05-.32-.07-.08-.02-.15,0-.14.01-.25,0-.49.01-.74.03-.55.03-1.07.05-1.58-.02-1.31-.19-2.54-.62-3.66-1.3-2.21-1.33-3.5-3.08-3.95-5.36-.02-.09-.03-.18-.04-.27Z"/>
    <path class="cls-1" d="M19.68,0v55.67c0,1.57.02,3.15.06,4.72,1.39,56.15,28.75,108.51,72.91,143.22l15.76,12.39,17.46-14.08c29.23-23.57,51.31-55.08,62.23-91,5.4-17.75,8.21-36.35,8.21-55.24V0H19.68ZM155,80.07c.28-.31.7-.35,1.01-.09.31.26.47.62.51,1.17.1,1.1-.41,1.98-.92,2.7-1.49,2.09-3.52,3.61-6.05,4.52-.99.36-2.07.56-3.02.74-.71.13-1.49.12-2.39-.04-.04-.63-.26-1.2-.67-1.74.18,0,.35,0,.52,0,2.42-.04,4.42-.54,6.12-1.52.45-.26.86-.59,1.25-.91.15-.12.3-.24.45-.36.13-.1.18-.25.22-.36.03-.07.04-.19-.08-.33l-.14-.15-.14.03c-.12.02-.26.06-.37.16-.69.69-1.58,1.21-2.82,1.64-1.05.36-2.18.6-3.35.69-.61.05-1.23.07-1.84.09h-.4c-.32.02-.68,0-1.03-.14.59-.63.44-1.38.25-1.92h.09c.32-.04.64-.08.96-.12.34-.05.69-.09,1.03-.13.87-.11,1.76-.21,2.64-.39,1.33-.26,2.67-.6,3.99-1,1.43-.43,2.65-1.1,3.62-1.97.17-.15.34-.33.54-.55ZM150.99,79.39c-1.2,1.23-2.69,2.2-4.57,2.98-.74.3-1.55.58-2.41.83-.28.08-.58.1-.9.12-.16.01-.31.02-.47.04-.09,0-.18.02-.27.04l-.19.03c-.37.05-.63-.03-.9-.29-.14-.13-.3-.23-.47-.3,0,0,.01,0,.02,0,.29-.09.59-.19.88-.29.56-.19,1.14-.39,1.72-.53,1.9-.45,3.41-.93,4.73-1.51,1.51-.66,2.78-1.44,3.85-2.36-.26.4-.6.81-1.03,1.26ZM103.13,11.24c6.38,0,10.07,1.66,12.51,2.76,1.18.53,2.03.92,2.77.92,1.03,0,2.21-1.11,3.34-2.18.89-.84,1.82-1.71,2.39-1.71.06,0,.61.03.67.96.02.67-.41,1-1.06,1.49-1.13.86-2.69,2.05-2.69,5.93v30.99c0,3.1,1.26,3.43,1.81,3.43,1.27,0,3.23-1.54,4.67-2.66.58-.46,1.25-.97,1.42-1.02.61,0,1.05.16,1.32.48.28.33.3.75.26.95-.04.47-.5.76-1.52,1.37-.27.17-.58.35-.95.59-3.91,2.45-8.83,5.31-9.8,5.31-3.29,0-4.91-2.72-5.27-8.8v-26.25c0-4.67-2.96-9.66-11.29-9.66-.85,0-5.31.09-9.99,1.86-.16.06-.35,0-.47-.05-.27-.12-.45-.33-.46-.35.06-.58,4.97-4.35,12.34-4.35ZM87.46,50.92l14.79-23.63c.42-.71.64-1.91.64-2.33,0-1.06-.85-2.19-2.26-2.19-.92,0-2.41.14-4.53,2.26-.35.35-.78.5-1.13.5s-1.77,0-1.77-1.77c0-1.2,3.68-4.67,10.75-4.67,6.01,0,7.36,2.26,7.36,3.96,0,1.98-9.2,10.4-9.2,12.03,0,.21.14.5,1.13.5l7.5.21c1.06,0,1.06,1.41,1.06,1.63l-.21,2.62c-.07.64-.64,1.06-1.56.99l-10.97-.64c-1.06,0-1.98.42-2.69,1.2-.71.85-1.06,1.84-1.06,3.04,0,1.77.57,3.04,1.77,3.75l9.13,4.46c.35.14.42.28.85.28.28,0,.57-.14.71-.28l1.84-1.42c.21-.21.5-.35.85-.35.64,0,1.2.57,1.2,1.2,0,.35-.21.71-.49.92l-5.59,3.96c-.21.14-.5.28-.78.28-.35,0-.49-.07-.78-.28l-9.69-6.58c-1.7-1.2-3.4,0-3.4,1.7s1.2,2.62,1.2,4.39c0,1.91-1.77,3.47-3.47,3.47s-3.47-1.91-3.47-3.11c0-1.34.14-2.69,2.26-6.08ZM94.68,77.7c.6-.06,1.26-.25,1.96-.55.67-.29,1.33-.62,1.98-.93.55-.27,1.1-.54,1.65-.79.49-.22,1.13-.49,1.78-.61,1.2-.23,2.39-.08,3.57.43.19.08.37.18.55.27.18.1.37.19.56.28.24.11.35.27.36.56,0,.19,0,.39,0,.58l-.1.03c-.29,0-.58,0-.86,0-.05,0-.16-.07-.2-.1-1.12-.73-2.2-1.04-3.3-.94-.89.08-1.69.39-2.35.69-.44.19-.87.39-1.3.59-.7.32-1.39.64-2.1.93-.91.38-1.66.52-2.37.42-.93-.13-1.71-.58-2.39-1.37.84.43,1.7.6,2.57.51ZM66.06,71.37c.22-.41.66-.6,1.07-.47.02.01.08.07.15.15,1.47,1.57,2.69,2.68,3.95,3.59,1.81,1.31,3.87,2.28,6.14,2.9.14.03.26-.01.35-.05.02,0,.04-.02.07-.02l.37-.1-.25-.3s-.03-.04-.04-.06c-.06-.09-.14-.21-.28-.25-1.69-.53-2.88-1.7-3.53-3.48-.43-1.16-.4-2.16.08-3.06.2-.38.48-.68.84-.9-.01.02-.02.03-.03.05-.71,1.12-.74,2.25-.09,3.37.59,1.02,1.5,1.87,2.78,2.6.71.4,1.46.76,2.19,1.1.29.14.58.27.86.41.93.45,2,1.01,2.79,1.9.67.76.89,1.56.65,2.39-.1.35-.34.74-.68,1.09-.44.47-.91.92-1.38,1.36-.24.23-.48.46-.72.69-.8.78-1.76,1.87-2.1,3.31-.53,2.29-.04,4.43,1.47,6.36,1.49,1.91,3.56,2.8,6.15,2.66,1.07-.06,2.07-.48,2.94-.84l.75-.32c.89-.38,1.81-.78,2.74-1.08,1.59-.51,3.1-.28,4.5.68.02.01.04.02.05.04l-.85,1.41c-.85-.45-1.77-.34-2.59-.25-.29.03-.54.08-.77.15-.13.04-.22.12-.3.2-.02.02-.04.04-.07.06l-.37.3.45.14s.05.02.08.03c.09.04.2.08.33.07.45-.04.91-.08,1.36-.13l.54-.05c.35-.03.66.07,1.01.26-1.11,2.84-.53,5.64.22,8.03-.42.3-1,.41-1.48.27-.35-.1-.82-.39-1.01-1.13-.19-.7.08-1.3.43-1.96.03-.05.06-.1.1-.15.06-.08.11-.16.15-.25.05-.11.04-.23.03-.31v-.41s-.33.11-.33.11c-.02,0-.04.01-.06.02-.1.02-.25.05-.33.2l-.13.25c-.21.39-.42.79-.58,1.21-.26.69-.2,1.4.19,2.13-.53.36-1.04.45-1.57.27-.58-.19-.91-.63-.99-1.3-.07-.62.1-1.23.55-1.94.01-.02.03-.04.04-.06.05-.06.1-.13.13-.23.03-.11.02-.21,0-.33l-.08-.29-.29.08c-.09.01-.22.03-.31.15-.39.51-.67,1.1-.85,1.81-.14.56-.03,1.05.12,1.52-.4.56-.87,1.08-1.63,1.16-.42.04-.82-.08-1.14-.34-.34-.28-.54-.69-.58-1.15-.06-.69.14-1.35.62-2.08l.04-.05c.04-.05.1-.12.13-.21.03-.09.03-.19.04-.26l.03-.44-.36.12s-.04.01-.07.02c-.1.02-.23.05-.32.16-.45.58-.72,1.15-.84,1.73-.05.24-.06.48-.07.72,0,.11-.01.22-.01.31-.54.76-1.14,1.15-1.88,1.23-.72.06-1.45-.43-1.71-1.17-.25-.72-.03-1.35.4-2.13.04-.08.1-.15.15-.22.07-.09.14-.19.19-.29.06-.12.05-.24.05-.33,0-.02,0-.05,0-.07v-.37s-.33.13-.33.13c-.02,0-.04.01-.06.02-.09.02-.21.05-.3.16-.43.54-.73,1.1-.9,1.72-.04.15-.14.32-.25.4-.66.54-1.24.68-1.87.47-.87-.29-1.36-1.18-1.16-2.08.12-.54.37-1.06.75-1.57.09-.12.09-.25.1-.36,0-.03,0-.06,0-.09l.08-.48-.44.22s-.05.02-.08.03c-.1.04-.23.09-.32.21-.27.4-.46.72-.62,1.03-.14.28-.65.52-.94.44-.42-.12-.77-.4-.97-.78-.2-.37-.23-.8-.1-1.21.09-.28.22-.54.35-.82.08-.17.16-.34.24-.51.05-.11.05-.23.05-.32,0-.03,0-.06,0-.09l.04-.45-.4.21s-.05.02-.07.03c-.09.04-.2.08-.29.19-.14.18-.25.38-.35.56-.18.34-.73.56-1.09.44-.76-.26-1.18-1.06-.95-1.84.1-.32.19-.55.3-.75.22-.4.43-.74.86-.86.15-.04.3-.13.47-.26.09-.08.14-.18.17-.26l.2-.39-.37-.03s-.05,0-.07-.01c-.08-.01-.2-.03-.32,0-.22.08-.43.16-.65.25l-.38.15c-.27.1-.53.03-.84-.25-.41-.36-.55-.83-.41-1.4.14-.58.47-1.06,1.06-1.51.27-.21.53-.41.86-.44.16-.02.26-.12.34-.2.02-.02.04-.04.07-.06l.39-.31-.57-.15c-.09-.03-.19-.06-.31-.06-.15,0-.27.01-.4.02-.21.02-.4.03-.58,0-.28-.05-.52-.2-.68-.43-.21-.3-.28-.69-.2-1.12.17-.89.74-1.54,1.75-1.98.14-.06.28-.1.42-.14.12-.03.24-.07.35-.11.11-.04.2-.1.28-.15l.48-.28-.39-.21s-.06-.03-.09-.05c-.09-.06-.2-.13-.34-.15-.49-.05-.7-.42-.69-.76.02-.79.87-1.6,1.67-1.61.15,0,.29-.04.41-.07.05-.01.1-.03.15-.04l.4-.09-.26-.32s-.07-.08-.11-.12c-.07-.08-.13-.15-.17-.22-.03-.06-.07-.13-.11-.19-.11-.19-.22-.39-.24-.57-.06-.62.2-1.13.78-1.54.34-.24.7-.27,1.1-.08.13.06.26.05.36.03.03,0,.06,0,.09,0h.5s-.3-.4-.3-.4c-.02-.02-.03-.05-.05-.08-.06-.09-.12-.2-.25-.27-.41-.23-.86-.27-1.38-.14-.13.03-.27.03-.37,0-1.66-.49-3.41-1.09-4.99-2.15-.33-.22-.65-.49-.97-.74-.19-.16-.38-.31-.58-.47-.1-.08-.21-.1-.3-.12-.03,0-.06-.01-.08-.02l-.46-.15.15.46s.01.06.02.08c.02.11.05.24.15.34,1.69,1.67,3.73,2.87,6.25,3.66-.4.59-.55,1.18-.46,1.82-.1-.03-.19-.06-.29-.09-.48-.15-.92-.29-1.36-.45-2.88-1.09-5.02-2.74-6.56-5.04-.75-1.13-1.22-2.35-1.4-3.64-.07-.5.02-1,.27-1.46ZM86.82,120.04c.01.08.06.19.2.28.15.09.27.08.35.06.19-.06.27-.24.32-.36.01-.03.02-.06.04-.08,1.95-3.17,3.23-6.31,3.9-9.59.18-.87.29-1.76.39-2.62.05-.41.1-.82.16-1.23,0-.04.01-.09.02-.13.85.24,1.58-.07,2.19-.45l.68.4-.02.2c-.03.26-.06.54-.11.82l-.07.4c-.14.84-.29,1.71-.47,2.55-.86,4.09-2.13,7.51-3.88,10.48-1.64,2.78-3.96,5.01-6.91,6.65-.55.3-1.08.45-1.57.43-.67-.02-1.18-.37-1.31-.9-.05-.21-.02-.34.09-.45l.07-.09c1.15-1.04,1.86-2.37,2.54-3.67l.33-.61c1.83-3.39,3.17-6.94,3.97-10.56.19-.86.34-1.75.48-2.6l.12-.74c.06-.35.1-.69.15-1.05l.03-.26c1.26.12,2.06-.57,2.59-1.22.09.13.11.27.09.46-.05.41-.09.82-.14,1.22-.05.51-.1,1.01-.18,1.51-.56,3.79-1.84,7.37-3.83,10.63-.01.02-.03.05-.05.07-.09.11-.21.27-.17.46ZM95.91,106.46l.97-.24v2.09s0,.18,0,.18c-.01.32-.02.64-.03.96-.02.69-.04,1.41-.1,2.11-.17,1.91-.36,3.62-1.03,5.25-.17.4-.41.79-.67,1.19.79-3.89.83-7.77.87-11.54ZM72.51,82c.43.1.86.25,1.27.39.25.09.51.18.77.26.2.06.4.12.59.17,0,0,0,0,.01,0-.3.15-.56.35-.78.6,0,0-.04,0-.07,0-3.55-.12-6.64-1.49-9.43-4.19-.37-.36-.69-.75-.94-1.16,2.6,2.26,5.77,3.25,8.58,3.92ZM59.88,80.06c.14-.17.32-.23.55-.23.11,0,.24.01.38.03,1.08,1.36,2.56,2.07,3.87,2.57,1.28.5,2.72.88,4.39,1.17.93.16,1.87.28,2.79.4l.74.1c.36.05.72.08,1.09.12l.15.02c-.31.83-.24,1.37.26,1.91-.21.07-.4.12-.59.13-.86.04-1.57.05-2.29-.01-2.29-.2-3.94-.66-5.36-1.48-.25-.14-.48-.32-.72-.52-.15-.12-.3-.24-.46-.35-.11-.07-.22-.1-.32-.13-.03,0-.07-.02-.1-.03l-.5-.16.19.49s.02.06.03.1c.03.11.07.24.17.34.93.93,2.02,1.59,3.24,1.98,1.14.36,2.15.6,3.09.73.51.07,1.03.07,1.53.06.16,0,.32,0,.48,0-.35.48-.64,1.05-.66,1.78h-.12c-.65.1-1.27.17-1.9.06-.18-.03-.37-.05-.55-.06-.24-.02-.46-.04-.67-.09l-.45-.11c-.75-.19-1.52-.38-2.22-.67-2.31-.95-4.18-2.4-5.55-4.32-.53-.74-.84-1.44-.96-2.13-.1-.62.05-1.2.45-1.68ZM61.09,89.29c.94.19,1.94.37,2.97.44.83.05,1.67.06,2.48.07.53,0,1.06,0,1.59.03.31,0,.62.04.93.08.28.03.55.06.83.08.33.02.65,0,.97-.01h.08c-.13.09-.25.17-.39.25l-.19.11c-.43.26-.88.52-1.34.68-.26.09-.56.09-.88.09-.1,0-.19,0-.29,0h-.38c-.56.02-1.14.04-1.7,0-1.93-.13-3.96-.41-5.76-1.51-.51-.31-.9-.66-1.19-1.08.67.36,1.42.62,2.26.78ZM59.15,92.66c.82.62,1.75.79,2.57.86,2.11.18,4.25-.22,6.74-1.25,1.28-.53,2.46-1.22,3.6-2.12.23.46.57.79,1.04.98-.74.63-1.15,1.36-1.24,2.21,0,.02-.05.09-.11.13-1.21.85-2.64,1.43-4.25,1.72-.35.07-.72.1-1.08.13-.36.03-.72.07-1.09.13-.5.09-.99.04-1.51-.01-.3-.03-.59-.06-.89-.06-.1,0-.16.02-.28.06l-.36.14.26.31c.05.08.12.18.26.22.18.06.39.09.6.11.22.02.44.04.67.06.55.06,1.11.12,1.67.08,2.62-.19,4.64-.78,6.33-1.86.28.57.75.94,1.41,1.09-.1.2-.21.41-.32.6,0,.01-.05.05-.12.08-1.39.62-2.95,1.06-4.77,1.35-1.28.2-2.59.25-3.91.16-1.43-.1-2.61-.4-3.61-.92-1.1-.57-1.72-1.35-1.88-2.39-.1-.61.07-1.21.27-1.81ZM72.29,97.42h0c-.12.14-.23.28-.34.42-.53.66-1.17,1.17-1.95,1.57-2.37,1.21-4.43,1.94-6.5,2.32-.71.13-1.49.2-2.32.21-.37,0-.67-.05-.98-.15,2.76-.56,5.2-1.36,7.42-2.46.33-.16.66-.35.98-.53.28-.16.55-.31.83-.46.16-.08.34-.13.54-.19.08-.02.16-.04.23-.07l2.08-.65ZM59.22,104.86c5.44-.39,10.07-2.73,13.77-6.96.19.83.68,1.36,1.46,1.61-.09.09-.17.18-.25.27-.39.41-.75.79-1.14,1.16-2.02,1.91-4.36,3.18-6.99,3.79-.06,0-.16.02-.25.1-.07.06-.11.13-.15.2l-.17.34.29.12c.08.04.19.11.33.07l.17-.04c.44-.1.9-.2,1.35-.34,2.97-.9,5.59-2.6,7.79-5.05.12.86.19,1.03.54,1.47-.27.5-.65.99-1.14,1.49-1.29,1.31-2.96,2.34-5.11,3.14-1.38.52-2.89.87-4.47,1.05-1.1.12-2.14.07-3.1-.14-.95-.22-1.68-.57-2.25-1.09-.43-.39-.64-.77-.67-1.18ZM73.79,105.03c-.14.2-.28.39-.41.6-.98,1.49-2.46,2.45-3.89,3.37-1.75,1.13-3.47,1.92-5.23,2.4.32-.16.63-.32.94-.49,2.21-1.19,4.19-2.64,5.89-4.29.08-.08.16-.14.23-.17.92-.43,1.73-.9,2.47-1.42ZM60.13,117.65c-.06-.17-.03-.38.07-.55.09-.16.23-.27.39-.3,1.72-.35,3.4-1.14,5.28-2.48,2.65-1.89,5.07-4.28,7.63-7.52,1.28-1.62,2.31-3.15,3.15-4.68.42.2.85.25,1.28.14-.04.56.12,1.04.28,1.39,0,.02-.02.08-.05.14-1.19,2.15-2.66,4.09-4.37,5.77-1.08,1.06-2.22,2.09-3.33,3.08-.5.45-1,.9-1.5,1.36-.04.03-.1.07-.14.16-.03.07-.06.14-.08.22l-.16.47.41-.06s.05,0,.07,0c.09,0,.23,0,.33-.1.31-.24.6-.49.9-.75l.22-.19c2.04-1.72,3.86-3.3,5.52-5.15,1.18-1.32,2.15-2.64,2.96-4.02.7.47,1.43.59,2.23.35-1.14,2.01-2.61,4.02-4.5,6.14-2.25,2.52-4.46,4.45-6.75,5.9-1.88,1.19-3.55,1.86-5.25,2.12-1.3.2-2.34.11-3.29-.27-.51-.21-1.07-.5-1.29-1.16ZM78.57,110.07c-.09.16-.18.33-.26.49-.16.29-.32.58-.49.87-.28.49-.57,1-.83,1.52-.69,1.38-1.67,2.53-2.63,3.56-1.84,1.97-4,4.23-6.42,6.12-.61.48-1.26.96-1.97,1.36.58-.48,1.16-.97,1.73-1.49,2.4-2.2,4.7-4.79,7.44-8.42.33-.44.72-.86,1.09-1.27.27-.29.53-.58.79-.88.52-.62,1.03-1.24,1.53-1.86ZM63.28,131.18c-.34-.22-.54-.48-.62-.79-.07-.25,0-.43.2-.56.2-.13.38-.22.55-.28,2.09-.75,3.99-2.07,5.98-4.16,1.88-1.96,3.6-4.26,5.59-7.46,2.26-3.64,4.31-7.47,6.29-11.18l.9-1.67c.29.7.8,1.18,1.52,1.44-.37,1.5-.88,2.98-1.49,4.42-1.23,2.88-2.95,5.66-5.24,8.49-.86,1.06-1.77,2.12-2.65,3.13-.4.46-.8.93-1.22,1.42-.04.04-.09.09-.13.16-.05.1-.09.2-.12.3l-.26.65.55-.23s.07-.02.1-.04c.11-.03.24-.08.35-.18.47-.46.92-.93,1.37-1.4,2.98-3.17,5.15-6,6.83-8.92,1.47-2.56,2.48-5.07,3.1-7.66,0-.02.04-.08.02-.08h0c.85-.11,1.43-.6,1.84-1.02h0c.23.46.56.82.98,1.08-.11,1.34-.32,2.91-1.08,4.45-2.77,5.55-5.88,10.18-9.5,14.15-2.08,2.29-4.44,4.12-7,5.44-1.35.7-2.63,1.1-3.92,1.24-1.03.11-1.98-.14-2.91-.76ZM71.15,144.54c0-.08,0-.16,0-.24.22-.06.5-.06.74-.06.63,0,1.18.26,1.77.53.22.1.44.2.66.29.16.06.31.13.47.19.52.22,1.06.44,1.62.56.4.08.81.02,1.21-.05.11-.02.21-.04.32-.05-.6.53-1.2.91-1.83,1.2-.72.32-1.32.26-1.86-.2-.33-.28-.68-.43-1.06-.43-.29,0-.6.08-.92.24l-.12.06c-.22.11-.44.23-.65.26-.38.06-.74-.11-1.01-.48.35-.22.58-.55.65-.95.05-.29.04-.58.03-.89ZM70.37,145.03l-.02.11c-.02.13-.11.28-.2.43,0,0,0,.01-.01.02-.69-.34-1.34-.4-1.86-.16-.28.13-.5.35-.64.63-.16-.27-.22-.64-.11-.92.18-.49.57-.83,1.1-.96.16-.04.31-.06.47-.06.45,0,.89.15,1.21.43.11.1.1.23.06.48ZM70.39,149.88s-.02,0-.09-.01c-.39-.09-.81-.17-1.21-.12-.84.11-1.39.72-1.45,1.57-.27-.23-.47-.59-.48-.93-.02-.52.16-1,.51-1.34.33-.33.78-.51,1.29-.51.02,0,.03,0,.05,0,.4,0,.79.04,1.18.07.08,0,.19.04.25.22.12.4.11.72-.04,1.07ZM73.52,154.97c-.71.05-1.24.35-1.6.89-.33.5-.4,1.03-.2,1.55-.93-.34-1.38-1.25-1.08-2.19.26-.82.82-1.4,1.65-1.71.03-.01.07-.02.12-.02.11,0,.27.03.44.09.39.14.81.73.67,1.38ZM76.62,150.86c-.67.51-.87,1.23-.98,1.93-.05.29-.09.58-.13.86-.04.26-.08.53-.12.79-.02.09-.05.18-.08.27l-.04.11c-.11.36-.36.63-.7.75-.16.06-.32.08-.5.06.07-.05.13-.12.16-.21.23-.71.1-1.47-.36-2.04-.4-.5-1-.76-1.6-.7,0,0-.02,0-.02,0,.02-.03.05-.06.07-.09.5-.44,1.02-.9,1.57-1.27.53-.35,1.07-.69,1.61-1.02.56-.35,1.13-.7,1.68-1.07.36-.24.67-.55.97-.86l.25-.25c.11-.11.12-.26.13-.37,0-.03,0-.05,0-.08l.08-.44-.41.16s-.05.02-.08.02c-.09.03-.22.06-.32.17-.62.73-1.39,1.23-2.27,1.76-.03.02-.11.06-.33.04-.51-.03-1.01-.08-1.52-.14-.38-.04-.67.12-.87.49l-.08.15c-.05.09-.1.18-.15.27-.17.36-.44.58-.78.63-.31.05-.65-.06-.92-.28.58-.79.61-1.58.07-2.38.16-.06.32-.11.43-.11.93,0,1.86.06,2.56.11,1.16.07,2.28-.25,3.32-.97.81-.56,1.55-1.2,2.23-1.81,3.29-2.96,5.87-5.51,8.13-8.01,1.56-1.74,2.66-3.15,3.56-4.57.04-.06.09-.12.15-.17.78-.65,1.57-1.3,2.36-1.95.27-.22.57-.45.87-.65.23-.15.47-.13.67.06.4.36.55.73.48,1.17-.09.61-.17,1.27-.25,2.11q0,.06-.12.13c-.42.23-.83.49-1.17.72-.14.09-.15.26-.15.36,0,.02,0,.05,0,.06v.33s.33-.04.33-.04c.09,0,.23,0,.33-.1.33-.32.77-.42,1.15-.47.2-.03.43-.1.52-.34.07.31.14.6.22.89.03.09.02.1-.04.15-.48.44-1.09.68-1.61.85-.25.08-.51.16-.76.23-.4.12-.82.24-1.22.39-.33.12-.66.34-.9.6-1.26,1.33-2.66,2.56-4.02,3.74-.47.41-.95.83-1.42,1.25-.85.76-1.69,1.56-2.5,2.34-.36.34-.71.68-1.09,1.04-.06.05-.14.12-.18.23-.04.09-.04.18-.05.25v.06s0,.29,0,.29h.29c.08,0,.2.02.31-.04.13-.07.25-.14.37-.22.14-.09.28-.17.42-.24l.29-.14c.53-.27,1.08-.55,1.64-.78.52-.21.99-.21,1.4.03-.57.97-.47,1.96.29,2.68.12.11.28.25.48.33.09.04.17.05.26.07-.04.07-.08.14-.13.2-.32.39-.75.61-1.34.66-.26.03-.51-.07-.74-.27-.27-.24-.53-.5-.78-.76-.73-.76-1.89-.68-2.73-.34-.15.06-.24.19-.3.31-.75,1.32-1.85,2.03-3.36,2.19-1.06.11-1.87.4-2.53.91ZM91.54,147.49c-.27-.47-.68-.78-1.19-.9-.13-.03-.27-.04-.4-.04-.52,0-1.03.21-1.42.58-.47-.31-.69-1.01-.48-1.53.09-.23.23-.37.45-.44.63-.23,1.27-.27,1.99-.12.65.17,1.1.54,1.27,1.06.14.44.06.94-.21,1.39ZM134.73,162.21c-.26,1.79-1.07,3.24-2.48,4.43-.96.81-2.12,1.35-3.55,1.67-1.46.33-2.82.39-4.14.2-1.7-.25-3.3-.99-4.87-2.25-1.74-1.39-3.23-3.17-4.69-5.6-1.71-2.84-3.06-6.01-4.02-9.43,0-.02,0-.05-.01-.07-.02-.11-.04-.29-.19-.39-.09-.07-.21-.09-.35-.07l-.12.03-.06.09c-.09.14-.09.49-.05.64,1.29,4.57,3.09,8.4,5.49,11.72,1.29,1.79,2.67,3.19,4.22,4.27.09.06.11.09.11.1.77,1.54,1.04,2.99.82,4.42-.19,1.22-.74,2.18-1.64,2.87-.65.49-1.34.73-2.08.7-.67-.02-1.3-.25-1.9-.7.08-.03.17-.06.25-.09.98-.41,1.53-1.24,1.54-2.33.02-1.65-.72-2.99-2.25-4.1-.85-.62-1.73-1.31-2.45-2.2-.82-1.02-1.43-2.22-1.82-3.55v-.06c-.03-.07-.05-.15-.1-.24-.05-.08-.12-.14-.18-.18l-.31-.19-.15.26c-.06.07-.13.18-.13.32.02.56.05,1.11.08,1.67.02.28.03.56.04.84.04.72.07,1.46.15,2.18.12,1.1.3,2.2.49,3.24.36,2.08.98,3.84,1.89,5.38.12.2.25.39.37.59l.12.18c.06.1.13.24.1.38-.03.11-.11.2-.25.27-.55.29-1.16.36-1.67.39h-.09c-.53.03-.62.12-.72.67-.02.12-.08.24-.13.33-.39.74-1.36,1.26-2.2,1.17-.94-.09-1.74-.74-1.94-1.57-.14-.56-.49-.6-.78-.6-.02,0-.05,0-.07,0-.58.02-1.11-.11-1.56-.36-.23-.12-.34-.22-.36-.31-.02-.08.04-.22.16-.4,1.27-1.81,2.08-4.01,2.47-6.72.2-1.36.32-2.75.44-4.09.04-.44.08-.88.12-1.32.05-.55.07-1.1.08-1.64v-.2c0-.13-.04-.24-.08-.33-.01-.03-.02-.05-.03-.08l-.14-.38-.28.3s-.04.04-.06.06c-.07.06-.17.15-.21.29-.7,2.48-2.16,4.47-4.33,5.91-1.13.75-1.89,1.86-2.21,3.21-.19.82-.08,1.62.32,2.24.33.51.82.87,1.43,1.07-.31.23-.65.4-1.05.52-1.36.41-2.53.04-3.57-1.15-.58-.66-.92-1.5-1.05-2.59-.18-1.51.32-2.87.84-3.99.03-.07.09-.14.15-.18,1.93-1.36,3.57-3.15,5.15-5.63,2-3.12,3.5-6.54,4.59-10.47l.05-.14-.03-.09c-.02-.08-.05-.15-.08-.23l-.15-.42-.27.25s-.03.03-.05.04c-.07.05-.16.12-.21.25-.05.14-.09.29-.13.44-.02.08-.04.15-.06.23-1.19,4.01-2.76,7.4-4.8,10.38-1.35,1.97-2.76,3.48-4.33,4.61-1.98,1.42-4.05,2.05-6.33,1.93-2.3-.13-4.05-.7-5.5-1.82-1.34-1.03-2.21-2.39-2.57-4.05-.15-.7-.29-1.38-.23-2.02.22-2.52,1.24-4.24,3.11-5.27.69-.38,1.4-.5,2.09-.35.39.08.71.28.98.61-.43.02-.84.16-1.21.47-1.05.89-1.57,2.13-1.5,3.58.06,1.17.6,2.25,1.62,3.2,1.03.96,2.28,1.54,3.72,1.73,1.94.25,3.78-.25,5.62-1.55.11-.08.15-.19.18-.27,0-.02.02-.04.02-.06l.16-.3-.34-.05s-.05-.01-.07-.02c-.09-.02-.21-.06-.34-.01-1.15.4-2.27.33-3.43-.22-1.04-.49-1.47-1.84-1.22-2.8.1-.4.36-.64.66-.64.02,0,.06.01.06.02.66.87,1.63,1.2,2.87.99,1.99-.35,3.69-1.42,5.38-3.37,1.19-1.38,2.14-2.94,2.83-4.64.04-.11.11-.22.22-.35,1.07-1.29,1.75-2.84,2.02-4.59.02-.14-.05-.25-.12-.37l-.18-.26-.25.21c-.08.05-.19.12-.23.27-.05.17-.08.35-.12.52-.04.18-.07.35-.12.52-.89,3.3-3.54,5.61-6.92,6.04-.32.04-.65.06-.98.07-.26.01-.53.03-.79.05l-.2.02c-.47.04-.95.09-1.42.2-1.2.3-1.87.83-2.39,1.93-.43-1.04-.37-2.31.15-3.32.35-.68,1.08-1.55,2.53-1.86.49-.11,1.03-.17,1.61-.18,1.54-.05,2.81-.2,4.03-.81,1.76-.89,2.92-2.36,3.53-4.5.16-.57.37-1.03.66-1.46.89-1.32,1.48-2.87,1.88-4.87.19-.96.3-1.94.38-2.79.07-.7.11-1.47.12-2.41,0-.43-.04-.85-.08-1.27l-.02-.2c-.02-.14-.1-.24-.17-.31-.02-.02-.03-.04-.05-.05l-.25-.34-.18.38s-.03.05-.04.07c-.05.08-.12.2-.12.34,0,.26.03.53.04.79.03.44.06.9.04,1.34-.04.92-.15,1.85-.25,2.75l-.04.38c-.17,1.55-.6,3.07-1.28,4.54-.68,1.46-1.47,2.45-2.5,3.09-1.46.91-3.45.83-4.72-.2-.37-.3-.66-.66-.87-1.08.2.04.41.08.63.09,1.32.03,2.52-.52,3.6-1.74.97-1.09,1.71-2.42,2.27-4.05.39-1.14.74-2.4,1.11-3.97.16-.66.22-1.34.29-1.99l.05-.49c.07-.68.11-1.28.12-1.83,0-.3-.03-.6-.07-.89-.02-.13-.03-.26-.04-.39,0-.07-.03-.28-.2-.4-.18-.12-.4-.06-.47-.04-.94.26-1.72.82-2.31,1.65-.8,1.13-1.05,2.42-1.18,3.53-.13,1.11.02,2.2.17,3.25l.02.17c-.72-.23-1.25-.72-1.54-1.42-.26-.62-.44-1.28-.63-2.07-.11-.44-.19-.89-.28-1.34-.09-.47-.18-.95-.29-1.42-.1-.41-.34-.78-.52-1.02-.45-.58-1.21-.72-1.85-.33-.28.17-.54.38-.79.58l-.11.09c-.29.24-.58.48-.87.72-.55.45-1.12.92-1.69,1.35-.79.58-1.74.95-2.91,1.11-.68.09-1.32.01-1.94-.25-.56-.24-.97-.67-1.12-1.2-.1-.34-.09-.7.03-1.03,0,.01.01.02.02.04.39.76,1.07,1.18,2.03,1.26,1.36.11,2.62-.35,3.73-1.39,1.12-1.04,1.84-2.33,2.46-3.57.32-.65.59-1.2.83-1.78.42-1.01,1.07-1.9,1.97-2.72.54-.49,1.07-.97,1.61-1.45.63-.56,1.26-1.13,1.89-1.7.23-.21.44-.44.65-.67.12-.13.24-.27.37-.39.97-1,.92-2.24.8-3.08-.27-1.86-.94-3.62-1.6-5.32l-.47-1.23c-.63-1.64-1.28-3.34-1.71-5.07-.38-1.51-.5-2.74-.38-3.88.15-1.39.63-2.7,1.44-3.89.88-1.3,2.03-2.46,3.61-3.63.4-.3.82-.58,1.23-.86l.61-.41c.07-.04.16-.09.22-.18.06-.1.07-.2.09-.33v-.28s-.28-.02-.28-.02c-.08-.01-.2-.04-.32.03-.31.18-.61.37-.93.6-.53.38-1.06.75-1.58,1.15-.62.48-1.32.78-2.13.91-1.05.18-2.08-.02-3.03-.57-.86-.5-1.32-1.58-1.07-2.51.02-.06.04-.11.06-.17.45,1.09,1.31,1.73,2.55,1.9,1.13.16,2.29-.06,3.62-.7,3.29-1.56,5.46-4,6.47-7.23.14-.44.19-.91.24-1.36.02-.16.04-.32.06-.47.03-.23.05-.47.07-.71v-.19c1.23-.64,1.61-1.27,1.45-2.37l-.02-.18-.17-.03c-.11-.02-.27-.04-.41.06-.1.08-.16.19-.17.35-.09.98-.51,1.42-1.48,1.53-.35.04-.71.03-1.08.03-.16,0-.31,0-.48,0-.15,0-.3,0-.45,0h-.35c-.24,0-.48-.01-.71-.02-.55-.01-1.11-.03-1.67.02-.73.06-1.46.17-2.16.28-.18.03-.36.05-.53.08.12-.28.31-.57.56-.84.66-.69,1.53-1.17,2.66-1.46.78-.2,1.6-.32,2.29-.4.39-.05.8-.05,1.2-.06.18,0,.36,0,.55-.01.05,0,.11,0,.16,0,.32.05.56.09.73-.06.17-.14.16-.38.16-.65-.03-2.24-1.27-3.79-3.48-4.36-1.12-.3-2.24-.24-3.18-.14-.06,0-.13,0-.2,0-.24-.59-.61-1.13-1.13-1.65-.05-.06-.12-.13-.22-.17-.1-.04-.19-.05-.27-.05l-.41-.05.07.34s0,.04,0,.06c0,.09.02.21.1.31.11.13.23.26.35.39.11.12.22.24.32.36-.8-.2-1.63-.1-2.46.3-.91.43-1.54,1.06-1.93,1.9-.45-.79-.62-1.42-.56-2.03.16-1.47.97-2.5,2.4-3.06.77-.3,1.65-.38,2.76-.24.28.04.56.06.83.08.17.01.35.03.52.05.03,0,.11.01.13.02l.19.14c.74.55,1.43,1.07,1.85,1.87.07.13.2.18.35.23l.3.15.05-.34s0-.04.02-.06c.03-.1.07-.26-.03-.39-.19-.24-.21-.48-.07-.87.08-.21.06-.45.04-.65,0-.02,0-.03,0-.05l.08-.02c.21-.05.41-.1.6-.17.52-.18.94-.49,1.24-.94.07-.11.06-.24.06-.37v-.33s-.31.08-.31.08c-.02,0-.04,0-.06,0-.1.01-.25.03-.34.16-.39.55-.99.82-1.89.84-.52.02-1.05-.04-1.57-.09-.24-.02-.48-.05-.72-.07l-.37-.03c-.44-.03-.87-.07-1.31-.1-.04,0-.08,0-.12,0,.02-.38.18-.71.49-1.02.59-.6,1.37-.86,2.12-1.06,1-.26,2.09-.34,3.54-.25.71.05,1.44.16,2.14.28.22.04.45.07.67.11,1.16.18,2.35.1,3.55-.22.86-.23,2.02-.68,2.64-1.93.15.24.22.49.22.79,0,.37,0,.73-.16,1.04-.33.66-.78,1-1.4,1.1-.16.02-.3.1-.41.17-.04.03-.09.05-.13.07l-.4.19.37.24s.08.06.12.08c.11.08.23.17.37.21.74.23,1.3.66,1.71,1.34l.1.16c.31.51.64,1.04.99,1.54.47.67,1.21,1.02,2.19,1.03.35,0,.68-.06,1.01-.13-.27.29-.68.52-1.03.59-.81.17-1.52-.16-2.1-.5-.12-.07-.23-.16-.35-.24-.1-.07-.2-.15-.3-.22-.1-.06-.21-.07-.34-.08h-.3s.01.31.01.31c0,.09-.02.22.07.34.99,1.22,1.53,2.67,2,4.05.07.19.15.38.23.56.54,1.17,1.5,1.67,2.71,1.41-.21.35-.62.65-1.07.75-.54.12-1.05,0-1.65-.37-.04-.03-.08-.06-.12-.09-.06-.05-.13-.09-.19-.13-.23-.13-.39-.09-.49-.03-.09.06-.2.18-.18.43.04.48.08.97.12,1.45l.05.63.25-.02h0s-.24.14-.24.14l.05,1.07c.04.89.09,1.77.14,2.66.06,1.04.29,2.05.68,3,.42,1.02,1.06,1.79,1.91,2.34-.09,0-.17-.01-.26-.03-1.83-.34-2.95-1.53-3.53-3.73l-.02-.1-.04-.05c-.05-.07-.1-.14-.15-.21l-.28-.38-.19.35s-.03.05-.05.07c-.05.08-.11.17-.13.29-.04.23-.07.45-.1.68-.05.37-.11.76-.2,1.12-.4,1.6-1.24,3.14-2.64,4.85-.97,1.18-1.96,2.11-3.02,2.86-.27.19-.57.36-.87.5-.34.16-.41.16-.8-.18-.1-.09-.22-.12-.31-.14-.03,0-.06-.01-.09-.02l-.44-.16.11.45s0,.05.01.08c.01.1.03.24.14.35.42.43.95.8,1.75.34.7-.4,1.37-.89,1.94-1.32.4-.3.76-.63,1.06-.99.63-.74,1.51-1.24,2.74-1.56,1.19-.31,2.48-.38,4.05-.21,1.58.17,2.98.84,4.3,1.57,1.24.68,2.52,1.39,3.93,1.79,2.08.59,3.79.67,5.39.25,2.79-.74,4.57-2.61,5.27-5.56.57-2.39-.04-4.5-1.81-6.26-.35-.35-.72-.69-1.08-1.04-.31-.3-.63-.59-.93-.89-.59-.58-.99-1.08-1.14-1.74-.12-.52.05-.99.23-1.38.33-.71.9-1.31,1.69-1.76.9-.51,1.83-.96,2.87-1.46,1.29-.61,2.65-1.34,3.76-2.49.57-.59.92-1.15,1.11-1.76.28-.94.14-1.85-.41-2.71.69.45,1.15,1.25,1.18,2.14.08,2.31-1.52,4.57-3.71,5.26l-.13.03-.06.06c-.06.06-.11.11-.17.17l-.32.34.37.12s.05.02.07.03c.09.04.23.11.37.07,2.65-.71,4.95-1.87,6.83-3.44.85-.71,1.66-1.5,2.44-2.26.24-.23.47-.46.71-.69.18-.17.41-.27.62-.25.21,0,.4.11.55.28.23.27.35.6.36,1.05.06,1.71-.57,3.33-1.98,5.11-1.77,2.23-4.18,3.76-7.37,4.67-.07.02-.13.04-.2.05.08-.64-.08-1.24-.46-1.79.15-.06.3-.11.45-.17.54-.2,1.09-.42,1.63-.65,1.53-.68,2.93-1.64,4.18-2.87.09-.09.12-.21.15-.3,0-.02.01-.05.02-.07l.14-.38-.4.05s-.04,0-.07,0c-.11,0-.25,0-.36.1-1.85,1.77-4.16,2.65-6.18,3.27-.37.11-.63.18-.95.07-.41-.14-.88-.05-1.31.24-.11.07-.15.19-.19.31l-.09.31.33.06c.09.03.21.06.34,0,.64-.26,1-.2,1.43.22.49.48.7,1.21.48,1.69-.05.1-.14.2-.23.31-.06.06-.12.13-.17.2-.05.06-.09.13-.13.2l-.21.34.29.11s.05.02.07.03c.08.04.18.08.3.09.96.02,1.56.46,1.79,1.29.1.34.08.63-.06.81-.12.17-.34.26-.62.27-.15,0-.25.1-.32.17-.02.02-.04.03-.05.05l-.28.2.27.2s.04.03.06.05c.07.06.16.14.29.17.91.18,1.59.56,2.08,1.16.47.57.63,1.18.47,1.82-.2.78-1.01.94-1.5.85-.03,0-.07-.02-.1-.03-.16-.05-.41-.04-.56.02l-.45.16.28.28s.03.04.05.05c.07.08.16.2.31.22.51.06.94.32,1.44.85.39.42.6.89.6,1.41,0,.48-.18.89-.51,1.13-.33.24-.78.28-1.24.11-.09-.03-.18-.08-.27-.13-.1-.05-.2-.11-.3-.15-.12-.04-.23-.03-.32-.02-.02,0-.05,0-.07,0h-.4s.18.36.18.36c.01.02.02.04.03.07.03.08.08.2.18.28.16.12.34.21.48.28.63.28.97.82,1.12,1.76.04.27,0,.6-.09.88-.13.35-.37.6-.7.73-.33.12-.71.09-1.05-.09-.04-.02-.11-.12-.13-.16-.06-.1-.12-.19-.17-.29-.08-.15-.17-.29-.26-.43-.08-.12-.2-.15-.29-.18-.02,0-.04-.01-.06-.02l-.34-.15v.37s0,.05-.01.07c-.01.09-.02.21.03.33.08.16.16.31.25.46.05.09.11.18.16.28.24.44.25.92.18,1.52-.06.55-.61,1.05-1.21,1.09-.34.02-.64-.17-.81-.49-.19-.37-.42-.71-.65-1.05-.08-.12-.21-.16-.3-.18-.02,0-.04-.01-.06-.02l-.34-.14v.37s0,.05,0,.07c0,.09-.02.22.04.34.09.16.19.32.28.47.12.19.24.38.34.58.21.41.27.9.16,1.44-.09.46-.37.86-.77,1.09-.4.24-.86.29-1.3.16-.29-.09-.56-.27-.85-.47-.09-.06-.17-.11-.25-.16-.01-.01-.04-.07-.07-.17-.14-.61-.43-1.19-.89-1.77-.09-.11-.22-.15-.32-.18-.03,0-.05-.01-.07-.02l-.41-.16.07.43s0,.05,0,.08c0,.1.01.23.09.34.3.41.62.9.73,1.47.13.69,0,1.3-.36,1.72-.32.38-.81.57-1.38.55-.72-.03-1.32-.43-1.88-1.21,0-.01,0-.05,0-.08,0-.03,0-.06,0-.09.03-.88-.27-1.71-.93-2.61-.09-.12-.22-.15-.32-.17-.02,0-.04,0-.06-.01l-.36-.12.03.37s0,.05,0,.07c0,.1,0,.23.07.35.41.58.63,1.07.71,1.58.18,1.05-.29,1.91-1.16,2.15-.64.17-1.61-.23-1.9-.79.32-1.15.07-2.26-.77-3.4-.09-.12-.22-.15-.31-.18-.02,0-.05-.01-.07-.02l-.37-.15.03.4s0,.05,0,.07c0,.1,0,.23.07.35.3.43.62.93.69,1.5.06.48.04.86-.05,1.15-.16.54-.52.92-1.01,1.06-.48.14-1.02.02-1.48-.31.77-.68,1.01-1.73.62-2.83-.13-.37-.33-.7-.52-1.02l-.11-.19c-.08-.14-.22-.18-.33-.21-.03,0-.05-.01-.07-.02l-.38-.16.04.49c0,.09,0,.19.05.3.07.17.16.33.25.5.16.3.31.59.38.88.15.64,0,1.22-.41,1.61-.42.39-1.06.51-1.7.3-.5-.16-.9-.5-1.25-.84-.13-.13-.27-.26-.4-.39-.39-.39-.79-.79-1.24-1.12-.53-.39-1.14-.55-1.71-.45-.56.09-1.06.43-1.43.97-.04.05-.11.14-.11.25,0,.09,0,.18.02.25l.06.39.36-.15c.06-.03.12-.05.18-.08l.1-.07.04-.09c.2-.35.51-.58.9-.64.38-.07.79.03,1.13.27l-.53,1.04c-1.18,2.33-1.97,4.56-2.39,6.79-.13.66-.19,1.34-.25,1.99l-.02.22c-.04.39-.06.78-.08,1.17-.02.28-.03.57-.05.85-.06.76.2,1.45.75,1.99.73.72,1.43,1.34,2.14,1.91.68.54,1.38,1.07,2.08,1.59.56.42,1.11.83,1.66,1.26.91.71,1.59,1.58,2.08,2.65.52,1.15,1.13,2.34,1.81,3.54.64,1.13,1.46,2,2.43,2.6,1.13.7,2.3.89,3.45.56.68-.19,1.15-.59,1.42-1.19.1.26.12.54.07.83-.14.81-.81,1.45-1.71,1.61-1.5.28-2.92-.07-4.34-1.08-.67-.48-1.32-1.02-1.95-1.55-.3-.25-.6-.5-.9-.75-.14-.12-.29-.23-.45-.33-.8-.51-1.65-.32-2.16.47-.39.61-.51,1.29-.63,1.95l-.04.2c-.04.21-.07.43-.11.65-.16.94-.31,1.83-.69,2.68-.37.82-.89,1.33-1.62,1.58,0-.04.01-.08.02-.13.05-.36.11-.72.13-1.09.12-1.88.06-3.43-.67-4.93-.61-1.26-1.49-2.05-2.69-2.43-.18-.06-.37-.12-.53-.02-.16.1-.2.29-.24.48-.19.97-.13,1.92-.06,2.83.12,1.44.38,2.92.82,4.52.62,2.3,1.39,4.06,2.41,5.51.53.76,1.1,1.33,1.74,1.74.99.64,2.01.85,3.04.61-.26.52-.62.93-1.11,1.25-1.55,1.03-3.71.83-5.15-.48-1-.9-1.73-2.09-2.24-3.61-.3-.89-.55-1.86-.8-3.04-.14-.67-.24-1.41-.3-2.34-.05-.73-.06-1.49-.06-2.22v-.51c0-.13.01-.26.03-.39.01-.12.03-.24.03-.36,0-.12-.06-.22-.13-.33l-.2-.29-.25.27c-.06.06-.16.14-.18.28l-.02.14c-.05.3-.09.62-.09.93,0,.23,0,.47,0,.7,0,.76-.01,1.55.07,2.32.27,2.41.77,5.21,2.4,7.65.24.36.4.73.52,1.15.55,2.03,1.58,3.48,3.14,4.43.8.49,1.7.8,2.65.91.44.05.88.07,1.31.09.24.01.48.02.72.04,1.13.08,2.41.29,3.36,1.26.97.98,1.26,2.85.73,4.09-.4-1-1.24-1.64-2.49-1.91-.55-.12-1.15-.18-1.91-.2-2.2-.05-4.01-.66-5.53-1.87-1.55-1.24-2.54-2.92-2.94-4.99v-.1c-.03-.09-.04-.19-.08-.28-.04-.11-.13-.17-.23-.26l-.25-.17-.16.25c-.06.07-.16.19-.13.34l.02.09c.07.4.14.8.25,1.2.34,1.21.92,2.32,1.72,3.3.12.14.22.32.31.52.97,2.27,2.23,4.11,3.84,5.61,1.35,1.26,2.74,2,4.24,2.27,1.27.23,2.25-.1,2.92-.96.02-.02.1-.04.13-.05.3.03.5.22.58.57.23.91-.03,2.18-.97,2.73-1.1.65-2.27.78-3.58.39-.13-.04-.25-.02-.35-.01-.03,0-.07,0-.1,0h-.47s.27.39.27.39c.02.03.04.06.06.09.05.09.12.2.23.28,1.17.82,2.47,1.33,3.87,1.5,2.12.27,4.99-.66,6.35-2.96.92-1.56.82-3.46-.26-4.96-.5-.69-1.09-1.04-1.8-1.08.27-.33.58-.53.96-.62.74-.17,1.49-.02,2.29.44,1.36.79,2.25,2.03,2.71,3.78.22.84.25,1.73.07,2.89ZM120.9,106.3h.04c.22-.05.42-.09.64-.11.68.59,1.42.83,2.22.7l.04.29c.05.39.1.78.15,1.17.56,3.98,1.98,7.86,4.22,11.53l.05.08c.05.08.1.18.18.27.08.09.19.12.31.14l.26.04.07-.25c.03-.07.07-.18.04-.3-.03-.11-.09-.21-.14-.28l-.04-.06c-1.82-2.98-3.06-6.21-3.66-9.58-.12-.67-.21-1.35-.29-2.02-.04-.33-.08-.65-.13-.97,0-.05-.02-.09-.03-.14,0-.03-.02-.06-.02-.12-.01-.22,0-.27.09-.34.12-.08.22-.2.31-.3.94.78,1.27.91,2.25.86l.02.15c.03.28.07.57.11.85.68,4.79,1.96,8.96,3.91,12.76l.48.94c.39.75.77,1.49,1.15,2.25.32.65.72,1.21,1.21,1.73.24.25.47.5.7.77.31.36.29.75-.05,1.07-.14.13-.33.23-.55.3-.57.18-1.13.14-1.72-.14-1.03-.48-1.97-1.17-2.87-1.84-2.27-1.68-4.06-4-5.62-7.3-1.24-2.63-2.17-5.58-2.82-9.02-.13-.7-.24-1.4-.35-2.1l-.13-.82c-.01-.07-.02-.13-.02-.2ZM120.93,117.96c-.06-.08-.12-.15-.17-.23-.64-1-.9-2.13-1.08-3.1-.19-1.04-.32-2.1-.44-3.09-.23-1.93-.22-3.9-.21-5.82.35.16.71.33,1.03.49.02.11.03.21.03.32,0,.44,0,.88,0,1.32,0,.91,0,1.83.02,2.74.03,1.28.09,2.24.19,3.14l.06.54c.13,1.22.27,2.47.56,3.69ZM124.14,146.64c-.04-.55.2-1.01.7-1.32.42-.25.83-.38,1.25-.38.15,0,.3.02.46.05.12.03.25.04.37.05.14.02.29.03.43.07.5.15.7.43.68.97-.01.42-.19.76-.53,1.02-.03.02-.04.03-.05.04,0,0-.03-.02-.05-.04-.63-.58-1.36-.72-2.12-.39-.37.16-.65.42-.84.79-.18-.29-.28-.57-.3-.86ZM141.81,155.45l.02.06c.02.05.05.09.09.13-.13.01-.27,0-.4-.03-.3-.08-.53-.28-.65-.55-.16-.38-.24-.8-.33-1.24-.02-.13-.05-.25-.08-.38-.04-.18-.06-.36-.09-.54-.03-.25-.07-.51-.14-.77-.35-1.29-1.42-1.73-2.31-1.97-.37-.1-.76-.16-1.13-.23-.23-.04-.45-.07-.68-.12-1.04-.21-1.86-.84-2.51-1.91-.19-.31-.42-.48-.76-.57-.31-.08-.59-.12-.86-.12-.72,0-1.31.28-1.78.85-.08.1-.18.19-.3.31-.37.35-.86.49-1.36.4-.46-.09-.84-.37-1.06-.78.59-.03.9-.54,1.12-.91.41-.67.4-1.4-.02-2.11-.02-.03-.04-.06-.06-.09.29-.18.65-.22,1.1-.1.37.09.78.25,1.27.49.33.16.65.34.97.53.21.12.43.25.65.36.11.06.23.08.33.1.04,0,.07.01.11.02l.45.1-.16-.43s-.02-.06-.03-.1c-.03-.11-.06-.25-.17-.35l-.51-.5c-.71-.7-1.44-1.43-2.19-2.11-1.07-.97-2.15-1.93-3.23-2.89-.7-.62-1.41-1.25-2.11-1.88-.33-.29-.62-.6-.88-.91-.33-.4-.77-.66-1.36-.84l-.48-.14c-.55-.16-1.11-.33-1.64-.54-.33-.13-.63-.34-.94-.56l-.23-.14s-.01-.06-.01-.07l.06-.35c.04-.2.07-.39.11-.59l.02.03c.04.09.09.17.15.25.36.53.85.97,1.45,1.33.12.07.25.07.35.08.03,0,.06,0,.09,0l.47.06-.21-.42s-.03-.06-.04-.08c-.04-.09-.08-.2-.17-.28-.45-.44-.9-.87-1.37-1.29-.09-.08-.18-.12-.27-.16-.03-.01-.06-.02-.08-.04l-.19-.1-.09.13c.09-.5.19-1,.3-1.49.1-.47.24-1.02.46-1.53.09-.2.25-.46.5-.52.26-.07.55.08.74.21.23.16.44.35.65.53.12.1.23.21.35.32.22.2.45.42.7.59.99.7,1.72,1.63,2.37,2.53,1.93,2.7,4.3,5.09,6.58,7.32,1.1,1.08,2.23,2.19,3.39,3.24.91.82,1.87,1.63,2.96,2.46.62.48,1.42.8,2.38.97.37.06.73.04,1.09.01.13,0,.27-.02.4-.02.24,0,.49-.02.73-.03.47-.02.95-.04,1.42-.04.09,0,.19.02.33.09-.29.37-.42.77-.4,1.21.02.47.17.87.46,1.18-.29.22-.63.32-.93.28-.33-.05-.59-.28-.77-.66l-.08-.15c-.38-.7-.76-.87-1.58-.71-.31.06-.63.08-.97.1h-.18s-.1,0-.17-.05c-.76-.47-1.63-1.01-2.26-1.78-.09-.11-.22-.13-.37-.16l-.35-.11.03.37s0,.05,0,.07c0,.1,0,.26.11.37l.26.26c.3.3.61.62.97.87.52.36,1.07.7,1.6,1.03.37.23.75.46,1.11.7.67.44,1.27.86,1.83,1.28.18.13.31.28.41.44-.47-.07-.91.06-1.31.38-.54.43-.83,1.03-.84,1.74,0,.23.09.45.16.65ZM145.53,146.37c-.12.19-.3.34-.51.42-.28.11-.58.1-.86-.03-.09-.04-.18-.09-.26-.13-.21-.11-.43-.22-.67-.29-.53-.14-1.03-.01-1.53.41-.46.39-.97.48-1.53.26-.36-.14-.7-.28-.99-.48-.34-.24-.67-.51-1-.78.22.05.44.09.66.11.74.08,1.44-.18,2.03-.43.33-.14.66-.28.98-.43.46-.2.92-.41,1.39-.6.51-.21,1.05-.24,1.6-.1.01,0,.02,0,.03,0-.24.87.02,1.65.65,2.06ZM144.25,157.4c.15-.47.12-.97-.1-1.41-.29-.57-.86-.93-1.56-1-.09,0-.12-.02-.12-.02h0s-.01-.04-.02-.13c-.02-.48.14-.84.49-1.13.34-.28.66-.31,1.01-.11,1.05.6,1.52,1.35,1.49,2.35-.03.7-.53,1.29-1.18,1.45ZM148.8,150.39c-.05.43-.22.78-.46.96,0-.09,0-.17-.02-.26-.16-.83-.88-1.38-1.77-1.38-.1,0-.21,0-.32.02-.17.02-.37.05-.55.14-.04.02-.06.02-.06.03,0,0-.03-.03-.05-.09-.11-.26-.17-.49-.1-.75.09-.35.26-.49.57-.49h.21c.48,0,.97,0,1.41.12.29.08.6.35.88.62.2.2.3.64.25,1.1ZM145.56,144.77c.02-.08.07-.18.13-.23.62-.56,1.74-.55,2.39.02.25.23.4.56.39.93,0,.2-.05.4-.14.56-.15-.29-.39-.52-.69-.65-.21-.09-.43-.14-.67-.14-.36,0-.74.11-1.12.31-.21-.21-.35-.58-.3-.81ZM153.26,130.55c-.11.2-.27.39-.45.54-.55.46-1.23.73-2.1.83-1.27.15-2.44-.22-3.42-.59-2.08-.79-4.03-2.04-6.33-4.03-2.44-2.12-4.38-4.63-5.8-6.59-2.67-3.69-4.74-7.21-6.31-10.76-.25-.56-.32-1.15-.41-1.77-.03-.23-.06-.47-.1-.7,0-.05-.02-.1-.03-.15-.02-.07-.03-.13-.03-.23-.01-.35,0-.52.27-.68.28-.17.47-.45.66-.72.02-.03.04-.06.06-.09.11.12.24.25.4.34.48.29.92.51,1.36.67q.09.04.11.11c.52,2.28,1.34,4.51,2.44,6.62,1.35,2.6,3.13,5.11,5.43,7.68.77.86,1.57,1.7,2.35,2.52.35.37.71.75,1.08,1.15.04.05.1.12.2.16.09.03.17.04.29.04l.27-.02v-.27c0-.08.02-.19-.05-.3-.06-.1-.14-.18-.22-.27l-.07-.07c-1.99-2.22-4.1-4.65-5.95-7.36-2.24-3.28-3.76-6.58-4.63-10.07.73-.27,1.24-.75,1.52-1.45.6,1.09,1.2,2.18,1.79,3.26,1.45,2.65,2.95,5.39,4.47,8.06,1.78,3.12,3.61,5.74,5.61,8.01,1.21,1.37,2.7,2.92,4.6,4.04.48.28.99.51,1.48.73.22.1.44.2.65.3.08.04.15.07.23.1.12.05.25.11.37.18.35.2.42.45.24.79ZM137.61,110.36c.41.5.83,1,1.28,1.47,1.05,1.09,2,2.31,2.91,3.48.67.86,1.36,1.76,2.09,2.6,1.67,1.92,3.66,4.08,6.03,6.01-1.19-.69-2.26-1.56-3.24-2.42-2.04-1.78-4.07-3.85-6.58-6.72-.07-.07-.14-.16-.19-.25-.77-1.39-1.54-2.79-2.31-4.18ZM155.63,118.09c-.52.62-1.27.84-1.87.96-1.46.29-2.98.1-4.78-.59-1.94-.74-3.79-1.89-5.81-3.61-3.33-2.83-6.13-6.13-8.32-9.81-.03-.05-.06-.1-.08-.14.3.06.62.12.94.13.43.02.89-.15,1.31-.46,1.11,1.89,2.54,3.69,4.37,5.5,1.58,1.56,3.31,3,4.97,4.4l.61.51.46-.4-.11-.18s-.04-.06-.05-.1c-.05-.09-.11-.2-.21-.29-.44-.4-.89-.8-1.34-1.19-.81-.72-1.66-1.46-2.46-2.21-2.24-2.12-4-4.32-5.36-6.71-.08-.14-.08-.23-.03-.44.09-.35.13-.71.17-1.06,0-.04,0-.07.01-.11.48.14.95,0,1.31-.16.81,1.48,1.82,2.98,3.07,4.58,2.31,2.94,4.6,5.28,7.03,7.12,1.96,1.49,3.6,2.36,5.32,2.83.13.04.26.06.39.09.12.02.24.05.35.08.06.02.11.05.13.07.31.36.31.83,0,1.21ZM142.21,105.04c.79.56,1.63,1.04,2.51,1.44.04.02.1.08.13.1,1.96,1.91,4.2,3.49,6.81,4.8-2.41-.67-4.73-1.91-7.3-3.87-.57-.44-1.02-.89-1.36-1.37-.26-.37-.52-.73-.79-1.1ZM156.37,105.76c-.62.72-1.46,1.05-2.2,1.27-.98.3-2.03.4-3.11.29-3.47-.36-6.34-1.41-8.77-3.23-.96-.72-1.69-1.51-2.24-2.41-.03-.06-.04-.08-.04-.08,0,0,0-.02.04-.06.34-.4.51-.87.51-1.4,2.39,2.64,5.13,4.34,8.36,5.2.26.07.53.12.79.17l.58.11.06-.22c.05-.18.04-.32-.03-.44-.1-.16-.26-.2-.39-.23-1.32-.3-2.57-.77-3.71-1.39-1.71-.92-3.24-2.17-4.67-3.84.84-.28,1.22-.72,1.41-1.64,3.68,4.24,8.3,6.59,13.76,7.01.02.37-.17.69-.35.89ZM143.67,97.41c.83.25,1.67.5,2.54.76.09.03.18.05.24.09,2.35,1.45,5.08,2.53,8.36,3.31.31.07.63.14.96.21-.18.05-.37.08-.57.11-1.37.2-2.68-.1-4.02-.45-1.92-.5-3.85-1.29-5.73-2.33-.57-.32-.99-.8-1.43-1.3-.1-.11-.2-.23-.3-.34-.02-.02-.03-.04-.05-.06ZM155.37,96.77c-.44.23-.95.44-1.5.6-1.08.32-2.25.45-3.8.44-1.01-.01-2.08-.13-3.28-.35-1.4-.26-2.65-.65-3.82-1.18-.06-.03-.14-.11-.2-.21-.1-.16-.2-.33-.29-.51.62-.11,1.1-.47,1.41-1.04,2.21,1.3,4.72,1.91,7.43,1.84h.12c.62-.02,1.33-.04,1.97-.34l.14-.18.03-.35-.28-.07c-.08-.03-.19-.06-.3-.05-.23.02-.45.04-.68.07-.42.05-.82.09-1.22.07-2.67-.11-4.74-.68-6.5-1.79l-.09-.06c-.06-.04-.13-.09-.19-.12-.11-.06-.16-.12-.18-.34-.07-.78-.46-1.46-1.19-2.08.19-.1.37-.2.54-.35.18-.17.31-.37.43-.55.21.13.42.27.63.4.62.39,1.26.8,1.92,1.16,1.82.97,3.86,1.57,6.07,1.79.78.07,1.58.03,2.51-.13.74-.13,1.32-.37,1.8-.73.42,1.17.62,3-1.46,4.1ZM156.73,88.99c-.73.69-1.66,1.17-3.02,1.56-1,.28-2.05.45-3.11.49-.8.03-1.67.05-2.74.06-.82-.02-1.47-.18-2.01-.59-.24-.18-.49-.35-.75-.52h.07c.39,0,.78,0,1.17-.07.66-.11,1.31-.09,1.99-.08.28,0,.56.01.84,0h.2c.93-.01,1.9-.02,2.85-.12,1.45-.15,2.99-.37,4.47-1.02.16-.07.31-.14.47-.23-.12.17-.26.33-.44.5Z"/>
  </g>
</svg>